<svg width="24" height="24" class="hidden">
  <symbol xmlns="http://www.w3.org/2000/svg" stroke="currentColor" viewBox="0 0 24 24" id="heart">
    <path stroke-linecap="round" stroke-linejoin="round" stroke-width="2" d="M4.318 6.318a4.5 4.5 0 000 6.364L12 20.364l7.682-7.682a4.5 4.5 0 00-6.364-6.364L12 7.636l-1.318-1.318a4.5 4.5 0 00-6.364 0z">
    </path>
  </symbol>
  <symbol xmlns="http://www.w3.org/2000/svg" viewBox="0 0 163 21" id="logo">
    <path d="M18.592.344l-6.804 13.16V20H7v-6.496L.196.344h5.432l3.808 8.232 3.78-8.232h5.376zm11.225 19.852c-1.848 0-3.547-.43-5.096-1.288a9.791 9.791 0 01-3.668-3.584c-.896-1.55-1.344-3.285-1.344-5.208s.448-3.65 1.344-5.18a9.791 9.791 0 013.668-3.584C26.271.493 27.97.064 29.817.064c1.848 0 3.538.43 5.068 1.288a9.332 9.332 0 013.64 3.584c.896 1.53 1.344 3.257 1.344 5.18 0 1.923-.448 3.659-1.344 5.208a9.586 9.586 0 01-3.64 3.584c-1.53.859-3.22 1.288-5.068 1.288zm0-4.368c1.568 0 2.819-.523 3.752-1.568.952-1.045 1.428-2.427 1.428-4.144 0-1.736-.476-3.117-1.428-4.144-.933-1.045-2.184-1.568-3.752-1.568-1.587 0-2.856.513-3.808 1.54-.933 1.027-1.4 2.417-1.4 4.172 0 1.736.467 3.127 1.4 4.172.952 1.027 2.221 1.54 3.808 1.54zM47.237.344v11.76c0 1.176.29 2.081.868 2.716.579.635 1.428.952 2.548.952s1.979-.317 2.576-.952.896-1.54.896-2.716V.344h4.788v11.732c0 1.755-.373 3.239-1.12 4.452a7.153 7.153 0 01-3.024 2.744c-1.25.616-2.65.924-4.2.924-1.55 0-2.94-.299-4.172-.896-1.213-.616-2.175-1.53-2.884-2.744-.71-1.232-1.064-2.725-1.064-4.48V.344h4.788zM72.299 20l-4.088-7.42h-1.148V20h-4.788V.344h8.036c1.55 0 2.865.27 3.948.812 1.101.541 1.923 1.288 2.464 2.24.541.933.812 1.979.812 3.136 0 1.307-.373 2.473-1.12 3.5-.728 1.027-1.81 1.755-3.248 2.184L77.703 20H72.3zM67.063 9.192h2.968c.877 0 1.53-.215 1.96-.644.448-.43.672-1.036.672-1.82 0-.747-.224-1.335-.672-1.764-.43-.43-1.083-.644-1.96-.644h-2.968v4.872zm24.2 7.112h6.271V20h-11.06V.344h4.788v15.96zm17.851 3.892c-1.848 0-3.547-.43-5.096-1.288a9.792 9.792 0 01-3.668-3.584c-.896-1.55-1.344-3.285-1.344-5.208s.448-3.65 1.344-5.18a9.792 9.792 0 013.668-3.584c1.549-.859 3.248-1.288 5.096-1.288 1.848 0 3.537.43 5.068 1.288a9.331 9.331 0 013.64 3.584c.896 1.53 1.344 3.257 1.344 5.18 0 1.923-.448 3.659-1.344 5.208a9.583 9.583 0 01-3.64 3.584c-1.531.859-3.22 1.288-5.068 1.288zm0-4.368c1.568 0 2.819-.523 3.752-1.568.952-1.045 1.428-2.427 1.428-4.144 0-1.736-.476-3.117-1.428-4.144-.933-1.045-2.184-1.568-3.752-1.568-1.587 0-2.856.513-3.808 1.54-.933 1.027-1.4 2.417-1.4 4.172 0 1.736.467 3.127 1.4 4.172.952 1.027 2.221 1.54 3.808 1.54zm25.764-9.268a3.484 3.484 0 00-1.54-1.484c-.654-.355-1.428-.532-2.324-.532-1.55 0-2.791.513-3.724 1.54-.934 1.008-1.4 2.361-1.4 4.06 0 1.81.485 3.23 1.456 4.256.989 1.008 2.342 1.512 4.06 1.512 1.176 0 2.165-.299 2.968-.896.821-.597 1.418-1.456 1.792-2.576h-6.076V8.912h10.416v4.452c-.355 1.195-.962 2.305-1.82 3.332-.84 1.027-1.914 1.857-3.22 2.492-1.307.635-2.782.952-4.424.952-1.942 0-3.678-.42-5.208-1.26a9.293 9.293 0 01-3.556-3.556c-.84-1.512-1.26-3.239-1.26-5.18 0-1.941.42-3.668 1.26-5.18a9.044 9.044 0 013.556-3.556c1.512-.859 3.238-1.288 5.18-1.288 2.352 0 4.33.57 5.936 1.708 1.624 1.139 2.697 2.716 3.22 4.732h-5.292zm17.576 13.636c-1.848 0-3.547-.43-5.096-1.288a9.792 9.792 0 01-3.668-3.584c-.896-1.55-1.344-3.285-1.344-5.208s.448-3.65 1.344-5.18a9.792 9.792 0 013.668-3.584c1.549-.859 3.248-1.288 5.096-1.288 1.848 0 3.537.43 5.068 1.288a9.331 9.331 0 013.64 3.584c.896 1.53 1.344 3.257 1.344 5.18 0 1.923-.448 3.659-1.344 5.208a9.583 9.583 0 01-3.64 3.584c-1.531.859-3.22 1.288-5.068 1.288zm0-4.368c1.568 0 2.819-.523 3.752-1.568.952-1.045 1.428-2.427 1.428-4.144 0-1.736-.476-3.117-1.428-4.144-.933-1.045-2.184-1.568-3.752-1.568-1.587 0-2.856.513-3.808 1.54-.933 1.027-1.4 2.417-1.4 4.172 0 1.736.467 3.127 1.4 4.172.952 1.027 2.221 1.54 3.808 1.54z"></path>
  </symbol>
  <symbol xmlns="http://www.w3.org/2000/svg" stroke="currentColor" viewBox="0 0 24 24" id="shop">
    <path stroke-linecap="round" stroke-linejoin="round" stroke-width="2" d="M3 3h2l.4 2M7 13h10l4-8H5.4M7 13L5.4 5M7 13l-2.293 2.293c-.63.63-.184 1.707.707 1.707H17m0 0a2 2 0 100 4 2 2 0 000-4zm-8 2a2 2 0 11-4 0 2 2 0 014 0z"></path>
  </symbol>
    <symbol xmlns="http://www.w3.org/2000/svg" viewBox="0 0 15 16" id="location">
    <path d="M7.5 5.797a2.582 2.582 0 00-2.578 2.578A2.563 2.563 0 007.5 10.953a2.582 2.582 0 002.578-2.578A2.601 2.601 0 007.5 5.797zm0 3.75c-.674 0-1.172-.498-1.172-1.172 0-.645.498-1.172 1.172-1.172.645 0 1.172.527 1.172 1.172 0 .674-.527 1.172-1.172 1.172zm7.031-1.875h-1.465a5.657 5.657 0 00-4.863-4.863V1.344a.504.504 0 00-.469-.469h-.468a.482.482 0 00-.47.469v1.465c-2.548.322-4.57 2.343-4.892 4.863H.47A.482.482 0 000 8.14v.468c0 .264.205.47.469.47h1.435a5.658 5.658 0 004.893 4.892v1.435c0 .264.205.469.469.469h.468a.482.482 0 00.47-.469V13.97c2.519-.323 4.54-2.344 4.862-4.893h1.465A.482.482 0 0015 8.61v-.468a.504.504 0 00-.469-.47zM7.5 12.594a4.201 4.201 0 01-4.219-4.219A4.22 4.22 0 017.5 4.156c2.314 0 4.219 1.905 4.219 4.219A4.22 4.22 0 017.5 12.594z"></path>
  </symbol>
  <symbol xmlns="http://www.w3.org/2000/svg" viewBox="0 0 24 24" id="facebook">
    <path d="M12 0C5.373 0 0 5.373 0 12c0 6.016 4.432 10.984 10.206 11.852V15.18H7.237v-3.154h2.969V9.927c0-3.475 1.693-5 4.581-5 1.383 0 2.115.103 2.461.149v2.753h-1.97c-1.226 0-1.654 1.163-1.654 2.473v1.724h3.593l-.487 3.154h-3.106v8.697C19.481 23.083 24 18.075 24 12c0-6.627-5.373-12-12-12z"></path>
  </symbol>
  <symbol xmlns="http://www.w3.org/2000/svg" viewBox="0 0 26 26" id="instagram">
    <path fill="none" stroke="#000" stroke-miterlimit="10" stroke-width="2" d="M7.546 25h10.909A6.545 6.545 0 0025 18.454V7.545A6.545 6.545 0 0018.454 1H7.545A6.545 6.545 0 001 7.546v10.909A6.545 6.545 0 007.546 25z"></path>
    <path fill="none" stroke="#000" stroke-miterlimit="10" stroke-width="2" d="M13 7a6 6 0 100 12 6 6 0 100-12z"></path>
    <path d="M20.5 4a1.5 1.5 0 100 3 1.5 1.5 0 100-3z"></path>
  </symbol>
  <symbol xmlns="http://www.w3.org/2000/svg" viewBox="0 0 24 24" id="twitter">
    <path d="M24 4.3c-.9.4-1.8.7-2.8.8 1-.6 1.8-1.6 2.2-2.7-1 .6-2 1-3.1 1.2-1-1-2.3-1.6-3.7-1.6-2.7 0-4.9 2.2-4.9 4.9 0 .4 0 .8.1 1.1-4.1-.2-7.7-2.1-10.1-5.1-.5.7-.7 1.6-.7 2.5 0 1.7.9 3.2 2.2 4.1-.8-.1-1.6-.3-2.2-.6V9c0 2.4 1.7 4.4 3.9 4.8-.4.1-.8.2-1.3.2-.3 0-.6 0-.9-.1.6 2 2.4 3.4 4.6 3.4-1.7 1.3-3.8 2.1-6.1 2.1-.4 0-.8 0-1.2-.1 2.2 1.4 4.8 2.2 7.5 2.2 9.1 0 14-7.5 14-14v-.6c1-.7 1.8-1.6 2.5-2.6"></path>
  </symbol>
  <symbol xmlns="http://www.w3.org/2000/svg" viewBox="0 0 24 24" id="linkedin">
    <path d="M21.8 0H2.2C1 0 0 1 0 2.2v19.6C0 23 1 24 2.2 24h19.6c1.2 0 2.2-1 2.2-2.2V2.2C24 1 23 0 21.8 0zM7 20H3V9h4v11zM5 7.7c-1.2 0-2-.8-2-1.8C3 4.8 3.8 4 5 4s2 .8 2 1.8c0 1.1-.8 1.9-2 1.9zM21 20h-4v-6c0-1.6-1.1-2-1.4-2-.3 0-1.6.2-1.6 2v6h-4V9h4v1.6c.6-.9 1.6-1.6 3.5-1.6s3.5 1.5 3.5 5v6z"></path>
  </symbol>
</svg>